<?xml version="1.0" encoding="UTF-8" standalone="no"?><svg xmlns="http://www.w3.org/2000/svg" xmlns:xlink="http://www.w3.org/1999/xlink" fill="#ffffff" height="3044.6" preserveAspectRatio="xMidYMid meet" version="1" viewBox="466.2 482.2 3067.7 3044.6" width="3067.7" zoomAndPan="magnify"><g id="change1_1"><path d="M3231.7,482.2H768.3c-166.9,0-302.1,135.3-302.1,302.1v1765.1c0,166.9,135.3,302.1,302.1,302.1h691.3 c10,0,19.3,4.9,24.9,13.2l422.8,625.4c24.5,36.3,77.9,36.7,103,0.8l437.8-626.6c5.6-8,14.8-12.8,24.6-12.8h759.1 c166.9,0,302.1-135.3,302.1-302.1V784.4C3533.8,617.5,3398.5,482.2,3231.7,482.2z M1958.2,2726.1c-108.3,0-196.1-87.8-196.1-196.1 c0-108.3,87.8-196.1,196.1-196.1s196.1,87.8,196.1,196.1C2154.3,2638.3,2066.5,2726.1,1958.2,2726.1z M2233.2,988l-99.8,1035.9 c-6.6,69-64.6,121.6-133.9,121.6h-34.3c-70.9,0-129.6-54.9-134.2-125.6l-68.6-1035.8c-5.1-76.3,55.4-140.9,131.9-140.9h207.5 C2179.6,843.1,2240.7,910.4,2233.2,988z"/></g></svg>