<?xml version="1.0" encoding="UTF-8" standalone="no"?><svg xmlns="http://www.w3.org/2000/svg" xmlns:xlink="http://www.w3.org/1999/xlink" clip-rule="evenodd" fill="#000000" fill-rule="evenodd" height="270" preserveAspectRatio="xMidYMid meet" stroke-linejoin="round" stroke-miterlimit="2" version="1" viewBox="0.0 0.8 270.0 270.0" width="270" zoomAndPan="magnify"><g id="change1_1"><path d="M903,153.783C903,131.139 884.644,112.783 862,112.783L674,112.783C651.356,112.783 633,131.139 633,153.783L633,341.783C633,364.427 651.356,382.783 674,382.783L862,382.783C884.644,382.783 903,364.427 903,341.783L903,153.783ZM889,153.783L889,341.783C889,356.695 876.912,368.783 862,368.783L674,368.783C659.088,368.783 647,356.695 647,341.783L647,153.783C647,138.871 659.088,126.783 674,126.783L862,126.783C876.912,126.783 889,138.871 889,153.783ZM768,176.783C728.814,176.783 697,208.597 697,247.783C697,286.969 728.814,318.783 768,318.783C807.186,318.783 839,286.969 839,247.783C839,208.597 807.186,176.783 768,176.783ZM768,190.783C799.459,190.783 825,216.324 825,247.783C825,279.242 799.459,304.783 768,304.783C736.541,304.783 711,279.242 711,247.783C711,216.324 736.541,190.783 768,190.783ZM848,151.783C856.831,151.783 864,158.952 864,167.783C864,176.614 856.831,183.783 848,183.783C839.169,183.783 832,176.614 832,167.783C832,158.952 839.169,151.783 848,151.783Z" fill="#ffffff" transform="translate(-633 -112)"/></g></svg>