<?xml version="1.0" encoding="UTF-8"?><svg xmlns="http://www.w3.org/2000/svg" xmlns:xlink="http://www.w3.org/1999/xlink" height="1093.1" preserveAspectRatio="xMidYMid meet" version="1.0" viewBox="-0.3 -0.7 1920.1 1093.1" width="1920.1" zoomAndPan="magnify"><defs><linearGradient gradientUnits="userSpaceOnUse" id="a" x1="1587.1" x2="1587.1" xlink:actuate="onLoad" xlink:show="other" xlink:type="simple" xmlns:xlink="http://www.w3.org/1999/xlink" y1="1465.4" y2="1873.2"><stop offset="0" stop-color="#ef0000"/><stop offset="1" stop-color="#c80000"/></linearGradient></defs><g><g><g><g><g id="change1_3"><path d="m180 433.53v13.531h10v-13.531h-10z" fill="#7fc94c" transform="matrix(40.64507 -7.5687 20.30528 20.38815 -16119.41 -6995.742)"/></g><g id="change2_3"><path d="m180.03 447.06v2.9062h9.9688v-2.9062h-9.9688z" fill="#f9f792" transform="matrix(40.64507 -7.5687 20.30528 20.38815 -16119.41 -6995.742)"/></g><g id="change3_2"><path d="m180 449.97v13.562h10v-13.562h-10z" fill="#4ca0c9" transform="matrix(40.64507 -7.5687 20.30528 20.38815 -16119.41 -6995.742)"/></g></g><g><g id="change1_2"><path d="m190 433.53v13.531h10v-13.531h-10z" fill="#7fc94c" transform="matrix(54.3749 6.21716 20.30528 20.38815 -18729.633 -9615.069)"/></g><g id="change2_2"><path d="m190 447.06v2.9062h3.5625v13.562h2.9062v-13.562h3.5312v-2.9062h-9.9999z" fill="#f9f792" transform="matrix(54.3749 6.21716 20.30528 20.38815 -18729.633 -9615.069)"/></g><g id="change4_2"><path d="m196.47 449.97v13.562h3.5312v-13.562h-3.5312z" fill="#c9a14c" transform="matrix(54.3749 6.21716 20.30528 20.38815 -18729.633 -9615.069)"/></g><g id="change3_1"><path d="m190 449.97v13.562h3.5625v-13.562h-3.5625z" fill="#4ca0c9" transform="matrix(54.3749 6.21716 20.30528 20.38815 -18729.633 -9615.069)"/></g></g><g><g id="change4_1"><path d="m183.26 999.64v13.562h10v-13.562h-10z" fill="#c9a14c" transform="matrix(36.96575 -11.26303 20.30528 20.38815 -25797.647 -17514.235)"/></g><g id="change1_1"><path d="m183.26 983.2v13.531h10v-13.531h-10z" fill="#7fc94c" transform="matrix(36.96575 -11.26303 20.30528 20.38815 -25797.647 -17514.235)"/></g><g id="change2_1"><path d="m183.26 996.73v2.9062h10v-2.9062h-10z" fill="#f9f792" transform="matrix(36.96575 -11.26303 20.30528 20.38815 -25797.647 -17514.235)"/></g></g><g id="change5_1"><path d="m173.24 983.23-0.0132 13.526 5e-3 2.9293-0.0132 13.526 3.5746 1.12 2.918 0.8616 3.538 1.0339-0.0232-13.526 0.0314-2.9293-0.0232-13.526-9.9941-3.0154z" fill="inherit" fill-opacity=".152" transform="matrix(48.183 0 20.30528 20.38815 -27906.454 -19640.72)"/></g></g><g transform="matrix(1.60999 0 0 1.60999 -1494.942 -757.32)"><path d="m1731.4 1612.3c0 79.687-144.29 266.52-144.29 324.14 0-57.579-144.29-244.45-144.29-324.14s64.599-144.29 144.29-144.29 144.29 64.599 144.29 144.29z" fill="url(#a)" stroke="#a00000" stroke-linecap="square" stroke-linejoin="round" stroke-width="4.79" transform="translate(0 -995.64)"/><g id="change6_1"><circle cx="1605.6" cy="1614.1" fill="#a00000" r="59.094" transform="translate(239.09 -741.47) scale(.83958)"/></g></g></g></g></svg>