<?xml version="1.0" encoding="UTF-8" standalone="no"?><svg xmlns="http://www.w3.org/2000/svg" xmlns:xlink="http://www.w3.org/1999/xlink" fill="#fffeff" height="121.8" preserveAspectRatio="xMidYMid meet" version="1" viewBox="13.0 3.2 101.2 121.8" width="101.2" zoomAndPan="magnify"><g id="change1_1"><path d="M 20.214844 58.582031 C 21.085938 56.542969 22.035156 54.519531 22.75 52.414062 C 20.433594 55.617188 18.558594 59.132812 17.300781 62.867188 C 16.953125 63.910156 16.636719 65.019531 16.421875 66.152344 C 18.429688 64.679688 19.347656 60.59375 20.214844 58.582031 Z M 20.773438 86.527344 C 20.804688 86.4375 20.847656 86.363281 20.894531 86.292969 C 20.742188 85.820312 20.613281 85.34375 20.515625 84.863281 C 19.972656 85.148438 19.671875 85.773438 19.5 86.402344 C 19.425781 86.65625 18.953125 88.847656 19.417969 88.8125 C 19.601562 88.800781 19.761719 88.835938 19.890625 88.894531 C 20.171875 88.097656 20.460938 87.308594 20.773438 86.527344 Z M 27.542969 13.257812 C 27.609375 13.15625 27.695312 13.070312 27.777344 13.003906 C 27.207031 9.417969 24.546875 4.722656 20.414062 6.464844 C 16.652344 8.058594 20.222656 11.09375 21.984375 12.308594 C 23.332031 13.230469 26.160156 15.441406 27.542969 13.257812 Z M 28.269531 25.59375 C 28.394531 25.125 28.539062 24.664062 28.695312 24.199219 C 26.238281 23.117188 23.738281 22.152344 21.203125 21.265625 C 20.941406 21.589844 20.757812 21.953125 20.667969 22.351562 C 23.121094 23.648438 25.640625 24.71875 28.269531 25.59375 Z M 26.394531 110.6875 C 27.164062 104.445312 29.390625 96.9375 33.054688 91.410156 C 30.832031 92.269531 28.433594 92.777344 26.191406 92.21875 C 24.589844 91.820312 23.148438 90.515625 22.097656 88.839844 C 19.230469 96.785156 17.933594 105.15625 18.210938 113.617188 C 18.320312 116.765625 18.039062 120.238281 21.617188 121.605469 C 23.847656 122.449219 26.167969 121.769531 28.035156 120.464844 C 27.886719 120.347656 27.742188 120.21875 27.605469 120.066406 C 25.695312 117.960938 26.082031 113.226562 26.394531 110.6875 Z M 30.171875 28.757812 C 31.039062 29.28125 32.007812 28.847656 32.21875 27.871094 C 31.621094 27.5 30.921875 27.234375 30.195312 27 C 30.117188 27.605469 30.109375 28.195312 30.171875 28.757812 Z M 33.859375 34.320312 C 33.847656 33.007812 34.105469 31.703125 33.921875 30.40625 C 33.804688 29.628906 33.503906 29.050781 33.089844 28.585938 C 32.65625 29.636719 31.503906 30.199219 30.417969 29.972656 C 30.839844 31.339844 31.722656 32.609375 33.214844 33.820312 C 33.425781 33.992188 33.648438 34.15625 33.859375 34.320312 Z M 34.429688 106.511719 C 33.851562 106.296875 33.28125 106.085938 32.707031 105.867188 C 32.246094 105.695312 31.917969 105.292969 31.953125 104.800781 C 31.929688 104.675781 31.929688 104.546875 31.964844 104.394531 C 32.472656 101.980469 33.054688 99.589844 33.6875 97.207031 C 32.207031 99.046875 31.53125 102.878906 31.210938 104.664062 C 31.105469 105.242188 30.054688 110.308594 32.039062 110.246094 C 32.824219 110.21875 34.15625 107.175781 34.429688 106.511719 Z M 35.769531 90.1875 C 35.757812 90.195312 35.742188 90.199219 35.722656 90.207031 C 32.601562 93.964844 31.15625 98.632812 29.699219 103.214844 C 29.011719 105.363281 28.351562 107.539062 27.980469 109.765625 C 27.71875 111.304688 27.585938 112.878906 27.652344 114.4375 C 27.679688 115.410156 27.808594 116.371094 28.050781 117.308594 C 28.113281 118.234375 28.695312 118.761719 29.789062 118.894531 C 32.109375 116.332031 33.195312 112.980469 33.933594 109.613281 C 32.398438 111.632812 30.34375 113.214844 29.71875 109.757812 C 29.167969 106.75 30.132812 103.289062 31.019531 100.441406 C 31.691406 98.261719 32.136719 96.210938 34.238281 95.234375 C 34.710938 93.546875 35.226562 91.863281 35.769531 90.1875 Z M 31.039062 89.871094 C 33.597656 89.230469 37.898438 87.445312 40.074219 84.871094 C 35.660156 80.3125 29.253906 76.917969 23.230469 80.875 C 23.097656 80.957031 22.976562 81.003906 22.851562 81.027344 C 21.863281 82.96875 23.167969 86.675781 24.039062 88.003906 C 25.757812 90.585938 28.339844 90.550781 31.039062 89.871094 Z M 38.734375 37.230469 C 37.996094 33.480469 37.5625 29.71875 37.425781 25.902344 C 37.417969 25.902344 37.40625 25.902344 37.390625 25.902344 C 37.164062 25.976562 36.894531 25.96875 36.628906 25.839844 C 34.800781 24.960938 32.871094 24.4375 30.871094 24.230469 C 30.660156 24.828125 30.480469 25.414062 30.359375 25.976562 C 32.011719 26.484375 33.738281 27.148438 34.539062 28.796875 C 35.496094 30.75 34.691406 33.015625 34.9375 35.089844 C 36.132812 35.898438 37.417969 36.621094 38.734375 37.230469 Z M 35.433594 104.699219 C 37.253906 98.792969 39.074219 92.886719 40.894531 86.988281 C 40.144531 87.660156 39.28125 88.242188 38.359375 88.785156 C 38.351562 88.863281 38.332031 88.945312 38.304688 89.027344 C 36.621094 94.011719 35.234375 99.066406 34.113281 104.203125 C 34.554688 104.367188 34.992188 104.53125 35.433594 104.699219 Z M 41.40625 81.925781 C 41.421875 81.769531 41.464844 81.628906 41.523438 81.507812 C 37.886719 77.332031 32.273438 75.058594 26.710938 75.566406 C 26.339844 75.601562 25.964844 75.65625 25.578125 75.71875 C 25.578125 75.738281 25.578125 75.757812 25.570312 75.78125 C 25.398438 76.417969 25.226562 77.050781 25.054688 77.6875 C 30.839844 75.738281 36.828125 78.746094 41.152344 83.039062 C 41.285156 82.679688 41.378906 82.308594 41.40625 81.925781 Z M 40.886719 93.992188 C 42.003906 94.246094 43.109375 90.941406 42.28125 89.464844 C 41.820312 90.976562 41.351562 92.488281 40.886719 93.992188 Z M 48.605469 95.640625 C 45.695312 92.816406 45.460938 88.351562 43.730469 84.769531 C 43.472656 85.597656 43.21875 86.421875 42.96875 87.246094 C 45.007812 88.382812 45.054688 91.65625 43.984375 93.910156 C 45.445312 94.761719 46.996094 95.34375 48.605469 95.640625 Z M 51.242188 42.019531 C 51.140625 41.894531 51.042969 41.75 50.960938 41.566406 C 50.925781 41.484375 50.898438 41.402344 50.886719 41.320312 C 47.175781 41.53125 43.503906 41.203125 39.882812 39.898438 C 39.765625 40.289062 39.464844 40.636719 38.964844 40.699219 C 37.808594 40.859375 36.660156 41.007812 35.507812 41.167969 C 39.753906 44.011719 46.371094 42.800781 51.242188 42.019531 Z M 50.371094 49.621094 C 51.34375 48.054688 54.117188 45.121094 52.753906 43.359375 C 52.609375 43.171875 52.445312 43.027344 52.28125 42.898438 C 46.65625 43.757812 38.882812 45.425781 34.136719 41.414062 C 30.535156 43.871094 27.21875 46.851562 24.417969 50.253906 C 24.417969 50.292969 24.425781 50.328125 24.417969 50.371094 C 23.574219 54.003906 21.828125 57.410156 20.367188 60.816406 C 19.363281 63.164062 18.746094 66.378906 16.238281 67.433594 C 16.113281 68.652344 16.136719 69.871094 16.429688 71.039062 C 17.433594 75.066406 21.484375 74.355469 24.71875 73.78125 C 26.664062 73.429688 28.636719 73.367188 30.578125 73.59375 C 36.785156 70.230469 43.097656 67.066406 49.503906 64.089844 C 47.863281 63.320312 46.222656 62.550781 44.582031 61.78125 C 44.339844 61.667969 44.195312 61.507812 44.121094 61.332031 C 43.832031 61.035156 43.703125 60.59375 43.941406 60.136719 C 45.835938 56.449219 48.179688 53.125 50.371094 49.621094 Z M 54.125 28.832031 C 53.988281 28.714844 53.886719 28.550781 53.839844 28.324219 C 53.523438 26.894531 53.199219 25.460938 52.882812 24.03125 C 49.03125 23.695312 45.261719 22.980469 41.558594 21.855469 C 40.425781 22.894531 39.375 24.019531 38.441406 25.242188 C 38.550781 29.457031 39.03125 33.613281 39.890625 37.734375 C 40.453125 37.96875 41.023438 38.179688 41.585938 38.371094 C 42.835938 38.785156 44.09375 39.050781 45.363281 39.222656 C 48.472656 35.921875 51.394531 32.460938 54.125 28.832031 Z M 57.292969 74.15625 C 57.21875 74.132812 57.148438 74.101562 57.085938 74.070312 C 57.011719 74.054688 56.933594 74.046875 56.859375 74.035156 C 56.371094 74.839844 55.878906 75.640625 55.390625 76.445312 C 55.515625 77.875 55.886719 79.074219 56.566406 79.996094 C 56.632812 78.011719 56.871094 76.058594 57.292969 74.15625 Z M 58.726562 38.132812 C 58.898438 37.882812 59.070312 37.625 59.234375 37.355469 C 57.816406 37.320312 56.570312 36.414062 56.242188 34.980469 C 54.53125 36.003906 53.253906 37.539062 52.21875 39.238281 C 54.402344 39.003906 56.578125 38.59375 58.726562 38.132812 Z M 60.113281 35.164062 C 60.320312 33.839844 59.976562 33.714844 58.84375 33.933594 C 58.253906 34.050781 57.71875 34.25 57.175781 34.492188 C 57.375 35.652344 58.335938 36.511719 59.558594 36.324219 C 59.632812 36.3125 59.695312 36.320312 59.757812 36.332031 C 59.929688 35.949219 60.058594 35.554688 60.113281 35.164062 Z M 61.144531 37.597656 C 61.6875 35.804688 62.230469 34.003906 62.773438 32.207031 C 60.265625 31.066406 57.703125 30.089844 55.066406 29.285156 C 52.429688 32.789062 49.621094 36.148438 46.632812 39.359375 C 48.070312 39.46875 49.511719 39.449219 50.953125 39.347656 C 52.761719 36.179688 55.507812 33.195312 59.339844 32.824219 C 62.457031 32.527344 61.28125 35.722656 60.09375 37.835938 C 60.445312 37.753906 60.792969 37.679688 61.144531 37.597656 Z M 73.363281 83.835938 C 73.03125 83.375 72.605469 82.984375 72.125 82.6875 C 72.078125 82.652344 72.03125 82.625 71.996094 82.59375 C 69.867188 83.113281 67.691406 83.457031 65.507812 83.585938 C 62.753906 83.746094 58.644531 84.027344 56.253906 82.304688 C 54.957031 81.375 54.441406 79.921875 54.179688 78.410156 C 54.160156 78.449219 54.140625 78.484375 54.113281 78.527344 C 53.570312 79.417969 53.015625 80.3125 52.472656 81.210938 C 51.441406 82.90625 48.734375 86.746094 53.699219 87.722656 C 55.046875 87.980469 56.523438 87.363281 57.898438 87.550781 C 60.058594 87.839844 61.5625 88.140625 63.746094 87.433594 C 66.980469 86.398438 70.191406 85.160156 73.363281 83.835938 Z M 68.988281 34.890625 C 69.679688 35.054688 73.453125 36.414062 74.242188 35.300781 C 71.109375 34.335938 67.9375 33.523438 64.730469 32.855469 C 64.632812 33.171875 64.535156 33.496094 64.441406 33.820312 C 65.953125 34.175781 67.46875 34.53125 68.988281 34.890625 Z M 82.351562 22.128906 C 82.398438 20.5625 81.460938 20.414062 80.121094 19.824219 C 79.335938 19.472656 78.546875 19.15625 77.695312 19.019531 C 74.960938 18.558594 71.34375 19.9375 71.871094 23.359375 C 71.878906 23.394531 71.878906 23.429688 71.878906 23.464844 C 73.421875 24.820312 75.332031 25.644531 77.441406 25.515625 C 79.460938 25.386719 82.296875 24.34375 82.351562 22.128906 Z M 85.796875 84.660156 C 86.570312 82.933594 87.625 80.910156 87.933594 78.898438 C 82.523438 81.320312 77.078125 83.664062 71.578125 85.886719 C 68.738281 87.035156 65.828125 88.476562 62.890625 89.300781 C 60.347656 90.015625 59.320312 89.007812 56.730469 88.957031 C 53.78125 88.910156 49.582031 89.691406 49.332031 85.433594 C 49.230469 83.585938 50.308594 81.992188 51.222656 80.484375 C 52.574219 78.265625 53.933594 76.054688 55.292969 73.835938 C 55.164062 73.753906 55.054688 73.621094 54.96875 73.429688 C 53.863281 70.828125 52.972656 68.167969 52.320312 65.414062 C 51.785156 65.160156 51.25 64.90625 50.714844 64.660156 C 44.464844 67.542969 38.316406 70.613281 32.253906 73.863281 C 33.539062 74.125 34.808594 74.503906 36.03125 75.023438 C 39.367188 76.429688 42.265625 78.808594 44.339844 81.773438 C 46.96875 85.539062 46.738281 91.320312 50.292969 94.328125 C 54.375 97.78125 62.382812 94.265625 66.996094 93.222656 C 72.269531 92.035156 77.558594 90.941406 82.867188 89.917969 C 84.019531 88.257812 84.96875 86.511719 85.796875 84.660156 Z M 88.003906 77.296875 C 88.003906 77.234375 87.996094 77.171875 87.988281 77.109375 C 87.96875 77.109375 87.957031 77.125 87.925781 77.125 C 83.546875 77.496094 79.824219 80.007812 75.757812 81.453125 C 75.09375 81.691406 74.414062 81.910156 73.734375 82.109375 C 74.082031 82.425781 74.394531 82.777344 74.667969 83.175781 C 74.6875 83.203125 74.6875 83.230469 74.703125 83.265625 C 79.191406 81.347656 83.621094 79.273438 88.003906 77.296875 Z M 89.980469 71.96875 C 90.007812 71.859375 90.050781 71.753906 90.097656 71.660156 C 87.925781 70.945312 85.695312 70.203125 83.699219 69.195312 C 82.839844 68.761719 81.925781 68.425781 81.617188 67.429688 C 81.34375 66.554688 81.753906 65.890625 82.089844 65.121094 C 82.535156 64.109375 83.136719 63.109375 83.78125 62.121094 C 82.441406 62.902344 80.882812 63.4375 78.953125 63.636719 C 72.832031 64.277344 66.734375 62.550781 60.925781 60.648438 C 61.550781 62.394531 61.980469 64.140625 61.578125 65.957031 C 61.652344 66.136719 61.667969 66.351562 61.550781 66.570312 C 59.140625 71.183594 57.972656 76.074219 57.984375 81.257812 C 58.707031 81.679688 59.59375 81.945312 60.671875 82.054688 C 61.871094 82.1875 63.089844 82.21875 64.296875 82.195312 C 67.46875 82.125 70.613281 81.570312 73.652344 80.640625 C 78.484375 79.164062 82.785156 76.128906 87.90625 75.691406 C 87.921875 75.550781 87.96875 75.40625 88.050781 75.265625 C 88.699219 74.164062 89.335938 73.066406 89.980469 71.96875 Z M 93.765625 43.289062 C 92.996094 42.828125 92.070312 42.519531 91.210938 42.390625 C 88.664062 42.011719 86.113281 41.832031 83.539062 41.820312 C 79.441406 42.511719 76.019531 46.160156 72.285156 47.835938 C 70.167969 48.78125 67.992188 49.464844 65.753906 49.929688 C 65.828125 49.976562 65.90625 50.027344 65.980469 50.074219 C 66.769531 50.652344 67.332031 51.421875 67.683594 52.328125 C 67.890625 52.847656 67.859375 53.652344 68.121094 54.160156 C 69.25 56.363281 71.515625 56.488281 73.609375 56.5625 C 78.929688 56.769531 84.144531 54.574219 87.707031 50.609375 C 89.878906 48.199219 91.164062 45.246094 93.765625 43.289062 Z M 82.875 92.007812 C 84.523438 98.855469 91.105469 101.9375 96.78125 100.359375 C 92.34375 99.773438 87.871094 96.09375 86.925781 91.898438 C 85.945312 91.875 84.953125 91.847656 83.972656 91.835938 C 83.882812 91.835938 83.800781 91.820312 83.726562 91.800781 C 83.644531 91.84375 83.554688 91.875 83.449219 91.898438 C 83.257812 91.929688 83.066406 91.972656 82.875 92.007812 Z M 95.289062 46.332031 C 95.613281 45.390625 95.289062 44.582031 94.632812 43.933594 C 91.5 46.097656 90.09375 49.914062 87.316406 52.492188 C 84.980469 54.65625 82.132812 56.226562 79.042969 57.011719 C 76.199219 57.730469 71.777344 58.261719 69.042969 56.824219 C 68.253906 56.414062 67.855469 56.132812 67.429688 55.328125 C 67.121094 54.75 67.128906 54.148438 66.941406 53.542969 C 66.355469 51.648438 64.648438 50.292969 62.820312 50.453125 C 62.8125 50.460938 62.804688 50.460938 62.804688 50.464844 C 61.261719 51.433594 59.914062 52.621094 58.863281 54.117188 C 58.46875 54.6875 58 55.339844 57.757812 56 C 57.273438 57.359375 57.484375 58.066406 58.15625 58.480469 C 58.308594 58.371094 58.507812 58.328125 58.734375 58.410156 C 63.761719 60.082031 68.863281 61.804688 74.179688 62.214844 C 79.863281 62.65625 84.164062 61.496094 87.449219 56.648438 C 87.632812 56.371094 87.824219 56.105469 88.011719 55.835938 C 90.1875 52.546875 92.515625 49.160156 95.289062 46.332031 Z M 99.089844 79.21875 C 97.640625 76.128906 94.699219 74.171875 91.164062 74.019531 C 90.820312 74.613281 90.476562 75.203125 90.125 75.792969 C 93.449219 75.945312 96.507812 77.125 99.089844 79.21875 Z M 97.269531 40.554688 C 97.777344 39.265625 96.792969 39.609375 95.765625 39.71875 C 94.4375 39.855469 91.652344 39.703125 90.125 40.492188 C 92.289062 40.734375 94.363281 41.25 95.730469 42.320312 C 96.320312 41.820312 97.019531 41.195312 97.269531 40.554688 Z M 97.578125 81.90625 C 94.800781 81.828125 92.023438 81.753906 89.238281 81.671875 C 89.007812 82.308594 88.738281 82.957031 88.46875 83.609375 C 87.578125 85.757812 86.617188 87.839844 85.40625 89.800781 C 87.667969 89.835938 89.933594 89.871094 92.191406 89.90625 C 90.46875 89.273438 89.34375 88.132812 89.742188 86.113281 C 90.125 84.164062 91.9375 83.066406 93.722656 82.578125 C 94.96875 82.242188 96.265625 82.042969 97.578125 81.90625 Z M 99.199219 76.664062 C 99.148438 76.28125 99.101562 75.902344 99.046875 75.523438 C 98.984375 75.523438 98.921875 75.523438 98.859375 75.523438 C 98.601562 75.539062 98.421875 75.429688 98.304688 75.269531 C 98.210938 75.1875 98.125 75.085938 98.070312 74.941406 C 97.597656 73.636719 97.234375 72.304688 96.964844 70.953125 C 96.128906 71.914062 95.164062 72.675781 94.054688 73.082031 C 96.121094 73.726562 97.898438 74.960938 99.199219 76.664062 Z M 100.261719 92.042969 C 99.960938 92.0625 99.65625 92.074219 99.34375 92.082031 C 97.054688 92.101562 94.769531 92.074219 92.480469 92.027344 C 94.308594 94.992188 98.371094 94.808594 100.261719 92.042969 Z M 100.730469 77.324219 C 101.023438 77.28125 101.320312 77.277344 101.621094 77.289062 C 101.472656 76.734375 101.3125 76.183594 101.128906 75.640625 C 101.113281 75.601562 101.105469 75.558594 101.101562 75.519531 C 100.90625 75.53125 100.699219 75.539062 100.496094 75.539062 C 100.570312 76.136719 100.644531 76.726562 100.730469 77.324219 Z M 101.746094 73.898438 C 102.035156 73.5625 101.589844 71.546875 101.539062 71.09375 C 101.3125 69.28125 100.90625 67.503906 100.378906 65.753906 C 99.65625 66.898438 98.9375 68.054688 98.222656 69.214844 C 98.1875 69.269531 98.160156 69.308594 98.125 69.363281 C 98.132812 69.386719 98.148438 69.40625 98.152344 69.425781 C 98.402344 71.019531 98.785156 72.574219 99.308594 74.097656 C 100.097656 74.125 101.484375 74.207031 101.746094 73.898438 Z M 102.199219 79.886719 C 102.136719 79.507812 102.0625 79.128906 101.980469 78.753906 C 101.621094 78.703125 101.265625 78.699219 100.914062 78.753906 C 100.964844 79.109375 101.003906 79.460938 101.050781 79.816406 C 101.441406 79.824219 101.828125 79.84375 102.199219 79.886719 Z M 103.175781 83.167969 C 103.015625 82.941406 102.828125 82.722656 102.609375 82.515625 C 100.898438 82.695312 99.191406 82.871094 97.480469 83.066406 C 95.949219 83.230469 93.640625 83.21875 92.34375 84.238281 C 88.074219 87.597656 91.765625 88.71875 93.441406 89.09375 C 94.453125 89.328125 95.53125 89.40625 96.558594 89.472656 C 98.160156 89.574219 99.753906 89.546875 101.355469 89.480469 C 101.492188 89.425781 101.628906 89.371094 101.757812 89.308594 C 99.417969 88.894531 97.046875 88.527344 94.769531 87.933594 C 93.820312 87.6875 92.777344 87.269531 92.902344 86.09375 C 93.042969 84.625 95.023438 84.347656 96.113281 84.101562 C 98.441406 83.582031 100.796875 83.292969 103.175781 83.167969 Z M 103.824219 84.589844 C 103.792969 84.445312 103.75 84.308594 103.703125 84.164062 C 101.917969 84.238281 100.144531 84.398438 98.382812 84.699219 C 97.769531 84.804688 93.121094 85.574219 94.808594 86.882812 C 95.585938 87.488281 98.066406 87.523438 99.074219 87.722656 C 100.496094 87.988281 101.910156 88.265625 103.332031 88.539062 C 103.503906 88.359375 103.632812 88.15625 103.738281 87.925781 C 103.105469 88.050781 102.453125 88.105469 101.855469 87.851562 C 101.21875 87.578125 100.667969 86.980469 100.652344 86.257812 C 100.640625 85.558594 101.132812 84.988281 101.746094 84.707031 C 102.410156 84.40625 103.125 84.492188 103.824219 84.589844 Z M 103.777344 39.800781 C 105.390625 37.492188 102.183594 37.347656 100.640625 37.425781 C 98.984375 37.507812 97.34375 37.691406 95.703125 37.910156 C 93.332031 38.21875 88.304688 38.199219 86.363281 40.308594 C 86.941406 40.308594 87.542969 40.316406 88.15625 40.34375 C 88.917969 39.160156 90.0625 38.894531 91.445312 38.730469 C 92.640625 38.578125 93.839844 38.476562 95.042969 38.351562 C 95.886719 38.261719 96.882812 37.988281 97.71875 38.117188 C 100.898438 38.59375 98.105469 42.003906 96.699219 43.359375 C 96.738281 43.417969 96.773438 43.480469 96.808594 43.542969 C 97.796875 43.707031 100.242188 41.875 100.878906 41.496094 C 101.847656 40.933594 102.816406 40.363281 103.777344 39.800781 Z M 103.972656 86.816406 C 103.976562 86.546875 103.964844 86.257812 103.921875 85.949219 C 103.929688 85.839844 103.929688 85.738281 103.929688 85.628906 C 103.175781 85.496094 101.980469 85.289062 101.710938 86.066406 C 101.539062 86.574219 102.164062 86.917969 102.554688 86.980469 C 103.027344 87.054688 103.511719 86.933594 103.972656 86.816406 Z M 105.6875 42.253906 C 105.316406 42.09375 104.964844 41.957031 104.648438 41.839844 C 101.613281 42.847656 99.082031 44.628906 96.867188 46.8125 C 96.699219 47.148438 96.484375 47.484375 96.242188 47.816406 C 94.808594 49.722656 93.121094 51.386719 91.601562 53.226562 C 90.804688 54.34375 90.035156 55.480469 89.28125 56.585938 C 87.496094 59.1875 84.695312 62.332031 83.65625 65.328125 C 83.53125 65.675781 83.46875 65.992188 83.464844 66.269531 C 84.238281 65.730469 85.011719 65.191406 85.785156 64.652344 C 87.667969 59.929688 91.074219 56.1875 94.40625 52.421875 C 97.789062 48.589844 101.367188 45 105.6875 42.253906 Z M 103.675781 80.222656 C 106.359375 81.257812 106.332031 85.703125 105.730469 87.988281 C 105.136719 90.214844 103.800781 91.285156 102.039062 91.761719 C 102.035156 91.785156 102.039062 91.816406 102.027344 91.84375 C 99.871094 96.929688 93.148438 96.703125 90.867188 91.992188 C 90.054688 91.972656 89.238281 91.953125 88.429688 91.929688 C 89.808594 96.527344 96.160156 100.542969 100.617188 98.414062 C 101.800781 97.480469 102.851562 96.273438 103.683594 94.753906 C 107.398438 87.976562 109.285156 75.320312 102.808594 69.667969 C 103.027344 70.957031 103.167969 72.257812 103.175781 73.546875 C 103.179688 74.386719 102.90625 74.867188 102.472656 75.15625 C 102.488281 75.1875 102.507812 75.214844 102.519531 75.257812 C 103.035156 76.808594 103.429688 78.394531 103.683594 80.007812 C 103.695312 80.085938 103.683594 80.152344 103.675781 80.222656 Z M 108.242188 49.148438 C 108.476562 48.609375 108.734375 48.015625 108.914062 47.394531 C 105.914062 51.53125 103.003906 55.78125 99.734375 59.679688 C 96.335938 63.738281 91.375 64.394531 86.417969 65.464844 C 85.53125 66.082031 84.640625 66.699219 83.753906 67.320312 C 84.445312 68.347656 86.265625 68.671875 87.757812 69.234375 C 89.398438 69.851562 91.046875 70.4375 92.703125 71.011719 C 92.84375 71.0625 92.957031 71.144531 93.03125 71.238281 C 95.984375 70.554688 97.550781 66.070312 98.957031 63.816406 C 100.460938 61.414062 102.109375 59.113281 103.695312 56.761719 C 105.34375 54.332031 107.046875 51.839844 108.242188 49.148438 Z M 109.09375 45.417969 C 109.046875 45.121094 108.96875 44.835938 108.824219 44.550781 C 108.480469 43.886719 107.664062 43.28125 106.773438 42.789062 C 102.597656 45.328125 99.136719 48.679688 95.882812 52.304688 C 92.578125 55.988281 89.046875 59.710938 87.042969 64.28125 C 89.15625 63.828125 91.3125 63.390625 93.359375 62.722656 C 96.476562 61.707031 98.210938 60.03125 100.132812 57.492188 C 103.144531 53.488281 106.105469 49.441406 109.09375 45.417969 Z M 105.527344 68.320312 C 107.460938 68.183594 109.390625 68.054688 111.324219 67.914062 C 109.683594 64.496094 107.398438 61.460938 105.0625 58.480469 C 103.957031 60.175781 102.859375 61.867188 101.773438 63.5625 C 103.023438 65.148438 104.277344 66.734375 105.527344 68.320312 Z M 113.851562 68.570312 C 114.136719 69.234375 113.445312 69.832031 112.863281 69.871094 C 110.625 70.023438 108.394531 70.183594 106.152344 70.339844 C 108.398438 73.507812 109.128906 77.570312 108.894531 81.636719 C 108.578125 87.152344 107.542969 93.546875 104.011719 97.988281 C 97.015625 106.8125 83.265625 103.035156 80.847656 92.410156 C 75.074219 93.550781 69.316406 94.78125 63.589844 96.121094 C 60.355469 96.875 56.480469 98.285156 53.015625 97.78125 C 49.441406 98.171875 46.003906 97.492188 42.863281 95.648438 C 42.816406 95.617188 42.78125 95.59375 42.738281 95.558594 C 42.046875 96.128906 41.203125 96.347656 40.269531 96.003906 C 39.21875 99.410156 38.164062 102.824219 37.109375 106.234375 C 37.011719 106.550781 36.820312 106.757812 36.582031 106.859375 C 35.515625 112.4375 34.128906 118.570312 29.285156 122.121094 C 26.101562 124.460938 20.796875 124.9375 17.949219 121.679688 C 16.464844 119.976562 16.363281 117.589844 16.230469 115.445312 C 16.027344 111.996094 16.082031 108.53125 16.390625 105.097656 C 16.824219 100.246094 17.777344 95.496094 19.230469 90.875 C 17 90.90625 17.078125 88.222656 17.351562 86.636719 C 17.652344 84.878906 18.605469 83.148438 20.351562 82.742188 C 20.425781 80.890625 21.148438 79.253906 22.757812 78.339844 C 22.949219 77.613281 23.140625 76.878906 23.339844 76.144531 C 20.457031 76.71875 17.597656 77.097656 15.585938 74.21875 C 12.984375 70.492188 14.246094 65.066406 15.722656 61.199219 C 19.164062 52.191406 25.570312 44.621094 33.566406 39.3125 C 33.902344 39.085938 34.230469 39.101562 34.5 39.242188 C 35.46875 39.113281 36.441406 38.984375 37.410156 38.851562 C 34.257812 37.300781 30.605469 35.183594 28.839844 32.027344 C 28.394531 31.222656 28.125 30.417969 27.988281 29.617188 C 27.886719 29.628906 27.769531 29.621094 27.644531 29.59375 C 26.191406 29.253906 24.726562 28.902344 23.265625 28.558594 C 21.746094 28.203125 19.933594 27.554688 18.738281 28.910156 C 17.859375 29.90625 16.410156 28.441406 17.28125 27.453125 C 19.410156 25.035156 23.25 26.175781 26.292969 27.082031 C 23.914062 26.21875 21.609375 25.199219 19.378906 24.003906 C 19.273438 23.949219 19.199219 23.882812 19.128906 23.8125 C 18.800781 23.675781 18.546875 23.371094 18.546875 22.914062 C 18.558594 21.65625 19.046875 20.480469 19.925781 19.597656 C 20.097656 19.164062 20.515625 18.847656 21.09375 19.046875 C 23.957031 20.027344 26.773438 21.128906 29.546875 22.335938 C 29.714844 22.179688 29.941406 22.082031 30.242188 22.101562 C 30.269531 22.101562 30.296875 22.109375 30.324219 22.109375 C 30.714844 21.277344 31.097656 20.453125 31.492188 19.625 C 30.296875 18.324219 29.222656 16.933594 28.285156 15.441406 C 26.238281 16.992188 23.394531 15.722656 21.273438 14.300781 C 18.992188 12.777344 14.898438 9.996094 16.769531 6.746094 C 18.40625 3.898438 22.808594 3.183594 25.386719 4.988281 C 28.265625 7.007812 29.738281 10.511719 29.941406 13.925781 C 29.945312 14.011719 29.941406 14.097656 29.925781 14.179688 C 30.925781 15.804688 32.089844 17.308594 33.425781 18.691406 C 33.792969 19.066406 33.785156 19.515625 33.59375 19.863281 C 33.574219 19.96875 33.550781 20.0625 33.503906 20.160156 C 33.160156 20.894531 32.808594 21.636719 32.46875 22.378906 C 34.027344 22.652344 35.535156 23.113281 37.007812 23.757812 C 38.035156 22.445312 39.160156 21.222656 40.410156 20.109375 C 40.617188 19.753906 41.011719 19.527344 41.519531 19.691406 C 45.460938 20.9375 49.464844 21.726562 53.585938 22.035156 C 53.679688 22.039062 53.761719 22.054688 53.839844 22.082031 C 54.234375 22.089844 54.605469 22.308594 54.722656 22.816406 C 55.054688 24.320312 55.390625 25.824219 55.726562 27.335938 C 58.15625 28.085938 60.535156 28.96875 62.859375 30 C 63.578125 28.414062 63.199219 26.574219 64.640625 25.308594 C 65.960938 24.15625 68.109375 23.558594 69.820312 22.921875 C 69.804688 19.78125 72.117188 17.351562 75.382812 16.933594 C 78.222656 16.5625 83.15625 17.90625 84.816406 20.460938 C 86.609375 23.230469 82.550781 26.066406 80.394531 26.917969 C 76.886719 28.304688 73.15625 27.351562 70.402344 24.90625 C 69.648438 25.214844 68.890625 25.523438 68.144531 25.839844 C 67.40625 26.140625 66.335938 26.410156 65.820312 27.0625 C 65.082031 27.988281 65.15625 29.5625 64.75 30.757812 C 68.417969 31.496094 72.03125 32.429688 75.601562 33.558594 C 75.945312 33.667969 76.152344 33.894531 76.246094 34.15625 C 76.363281 34.304688 76.4375 34.5 76.453125 34.730469 C 76.546875 36.675781 75.847656 38.25 73.71875 38.089844 C 73.128906 38.050781 72.53125 37.960938 71.925781 37.855469 C 72.511719 38.503906 72.792969 39.3125 72.488281 40.328125 C 72.105469 41.59375 70.121094 41.050781 70.503906 39.78125 C 70.816406 38.734375 65.671875 36.984375 63.691406 36.289062 C 63.425781 37.171875 63.164062 38.050781 62.898438 38.929688 C 62.703125 39.566406 62.105469 39.746094 61.605469 39.601562 C 58.78125 40.238281 55.96875 40.804688 53.15625 41.117188 C 53.996094 41.976562 55.410156 42.222656 55.691406 43.617188 C 55.96875 45.007812 54.757812 46.371094 54.105469 47.445312 C 51.488281 51.734375 48.585938 55.84375 46.203125 60.273438 C 48.75 61.472656 51.296875 62.667969 53.84375 63.863281 C 54.34375 64.097656 54.457031 64.542969 54.324219 64.941406 C 54.894531 67.332031 55.636719 69.671875 56.570312 71.949219 C 56.640625 71.949219 56.710938 71.949219 56.785156 71.953125 C 57.039062 70.675781 57.609375 69.542969 58.289062 68.34375 C 59.785156 65.671875 59.832031 63.679688 58.816406 60.871094 C 51.28125 59.359375 58.199219 50.917969 61.761719 48.6875 C 61.867188 48.625 61.960938 48.585938 62.058594 48.554688 C 62.179688 48.488281 62.332031 48.433594 62.496094 48.410156 C 67.042969 47.855469 71.363281 46.378906 75.230469 43.902344 C 78.203125 41.992188 80.648438 39.921875 84.234375 39.664062 C 85.359375 37.644531 87.371094 37.191406 89.617188 36.800781 C 92.84375 36.230469 96.101562 35.695312 99.367188 35.445312 C 101.195312 35.308594 104.664062 34.636719 106.105469 36.304688 C 107.148438 37.519531 106.738281 38.960938 106.015625 40.171875 C 108.296875 41.113281 110.976562 42.828125 111.269531 45.21875 C 111.742188 48.988281 108.386719 53.390625 106.492188 56.289062 C 106.40625 56.417969 106.324219 56.542969 106.242188 56.671875 C 109.175781 60.410156 112 64.160156 113.851562 68.570312 Z M 97.550781 79.84375 C 95.351562 78.230469 92.804688 77.351562 90.050781 77.234375 C 90.097656 78.058594 90.015625 78.847656 89.84375 79.632812 C 92.410156 79.699219 94.980469 79.769531 97.550781 79.84375" fill="inherit"/><path d="M 36.648438 64.054688 C 36.902344 62.179688 36.003906 59.289062 33.585938 60.464844 C 30.703125 61.867188 29.917969 67.332031 33.738281 67.945312 C 35.207031 67.460938 36.066406 66.171875 36.496094 64.722656 C 36.539062 64.503906 36.585938 64.28125 36.648438 64.054688 Z M 39.195312 56.996094 C 39.210938 56.386719 39.03125 55.328125 38.222656 55.417969 C 37.515625 55.492188 37.058594 56.34375 37.09375 56.996094 C 37.128906 57.683594 37.617188 58.226562 38.242188 58.445312 C 38.261719 58.453125 38.277344 58.464844 38.296875 58.480469 C 38.914062 58.261719 39.183594 57.664062 39.195312 56.996094 Z M 42.539062 53.941406 C 40.777344 53.894531 39.011719 53.84375 37.246094 53.796875 C 31.105469 58.761719 24.484375 65.210938 20.6875 72.207031 C 24.699219 71.589844 28.578125 70.121094 32.382812 68.601562 C 30.75 67.820312 29.847656 65.964844 30.101562 64.097656 C 30.371094 62.113281 32.039062 59.414062 34.238281 59.195312 C 36.011719 59.015625 37.15625 60.3125 37.589844 61.832031 C 38.023438 60.964844 38.496094 60.121094 38.988281 59.296875 C 38.804688 59.402344 38.605469 59.480469 38.371094 59.53125 C 38.203125 59.566406 38.0625 59.515625 37.953125 59.433594 C 36.8125 59.03125 35.996094 58.007812 36.074219 56.761719 C 36.140625 55.609375 37.058594 54.433594 38.261719 54.367188 C 39.636719 54.289062 40.183594 55.71875 40.21875 56.871094 C 40.226562 57.039062 40.21875 57.203125 40.199219 57.367188 C 40.953125 56.207031 41.75 55.074219 42.539062 53.941406 Z M 43.515625 52.9375 C 43.878906 52.945312 44.195312 53.378906 43.964844 53.714844 C 42.71875 55.480469 41.46875 57.242188 40.332031 59.085938 C 39.527344 60.375 38.261719 62.175781 37.71875 63.96875 C 37.671875 64.316406 37.597656 64.675781 37.492188 65.019531 C 37.417969 65.71875 37.480469 66.390625 37.769531 67.023438 C 37.972656 67.460938 37.539062 67.859375 37.191406 67.800781 C 31.527344 69.957031 25.832031 72.648438 19.761719 73.367188 C 19.34375 73.417969 19.164062 72.902344 19.316406 72.59375 C 23.085938 65.121094 30.046875 58.292969 36.539062 53.054688 C 36.585938 52.917969 36.703125 52.816406 36.867188 52.78125 C 36.902344 52.757812 36.929688 52.730469 36.964844 52.703125 C 37.226562 52.5 37.546875 52.589844 37.726562 52.78125 C 39.65625 52.835938 41.585938 52.882812 43.515625 52.9375" fill="inherit"/><path d="M 19.832031 67.242188 C 21.21875 65.65625 22.625 64.097656 24.054688 62.574219 C 23.070312 62.496094 22.15625 62.148438 21.339844 61.5625 C 20.667969 63.398438 20.148438 65.285156 19.832031 67.242188 Z M 26.414062 60.09375 C 24.945312 60.121094 23.441406 59.90625 22.488281 58.746094 C 22.214844 59.359375 21.953125 59.976562 21.707031 60.601562 C 21.746094 60.621094 21.785156 60.636719 21.828125 60.664062 C 22.757812 61.398438 23.890625 61.660156 25.050781 61.515625 C 25.503906 61.042969 25.957031 60.5625 26.414062 60.09375 Z M 27.34375 59.167969 C 27.972656 58.535156 28.613281 57.910156 29.257812 57.292969 C 27.347656 57.484375 25.460938 57.015625 23.835938 55.917969 C 23.53125 56.515625 23.242188 57.113281 22.957031 57.71875 C 23.011719 57.757812 23.058594 57.808594 23.097656 57.867188 C 23.921875 59.203125 25.625 59.113281 26.992188 59.042969 C 27.144531 59.035156 27.261719 59.089844 27.34375 59.167969 Z M 30.578125 56.046875 C 31.621094 55.082031 32.699219 54.148438 33.792969 53.226562 C 31.773438 53.605469 29.691406 53.914062 27.652344 53.941406 C 26.636719 53.949219 25.8125 53.707031 25.351562 53.035156 C 25 53.6875 24.652344 54.34375 24.308594 55.003906 C 26.113281 56.242188 28.230469 56.632812 30.363281 56.054688 C 30.441406 56.042969 30.507812 56.035156 30.578125 56.046875 Z M 35.695312 52.492188 C 35.796875 52.667969 35.804688 52.890625 35.589844 53.054688 C 29.628906 57.890625 24.5 63.4375 19.464844 69.207031 C 19.183594 69.535156 18.546875 69.28125 18.585938 68.84375 C 19.191406 62.558594 21.964844 57.09375 24.945312 51.625 C 25.144531 51.253906 25.578125 51.332031 25.785156 51.59375 C 25.90625 51.675781 26.003906 51.796875 26.019531 51.976562 C 26.230469 53.996094 33.949219 52.15625 35.046875 51.933594 C 35.441406 51.859375 35.695312 52.191406 35.695312 52.492188" fill="inherit"/></g></svg>