<?xml version="1.0" encoding="UTF-8" standalone="no"?><svg xmlns="http://www.w3.org/2000/svg" xmlns:xlink="http://www.w3.org/1999/xlink" fill="#000000" height="319.6" preserveAspectRatio="xMidYMid meet" version="1" viewBox="-0.7 0.0 501.7 319.6" width="501.7" zoomAndPan="magnify"><g id="change1_1"><path d="M35.3,110.7l94.6,17.6l-33.4,60.2c-4,0.2-8-0.8-11.6-2.8L2.4,138c-1.6-0.9-2.4-2.4-2.4-4l0,0v-17.5 c0,0,14.3-3.1,19,3.6L35.3,110.7z M329.2,207.5l-75.5,43.6c-4.7-6.7-19-3.6-19-3.6V265l0,0c0,1.6,0.8,3.1,2.4,4l82.4,47.6 c3.5,2,7.4,3,11.2,2.9l29-39.8l-29-72.2H329.2z" fill="#db4830"/></g><g id="change2_1"><path d="M262.4,95.5l-156.1,90.1c-3.1,1.8-6.5,2.7-9.9,2.8V146L30.7,108l134.7-77.8c4.5-2.6,10.1-2.6,14.6,0 l67.2,38.8c2.3,1.3,2.3,4.6,0,5.9l-1.3,0.8l1.2,0.7c1.6-1.7,3-2.8,3-2.8l15.3-0.5v17.5c0,0,0,0,0,0 C265.3,92.5,264.3,94.4,262.4,95.5z M40.9,150v3.7c0,0.7,0.3,1.4,0.8,1.9c5.6,1,6.4-3.6,6.4-3.6l-5.3-3.1 C41.9,148.4,40.9,149,40.9,150z M205.8,43.4l8.7,5c1.5,0.9,3.4,0.9,4.9,0l0,0c0.9-0.5,0.9-1.9,0-2.4l-9.7-5.6 c-1.3-0.7-2.8-0.7-4.1,0C204.7,41.1,204.7,42.7,205.8,43.4z M66.4,134.5c-4.6-2.7-12.2-2.7-16.9,0c-1.8,1.1-2.9,2.4-3.3,3.7 c0.4,1.4,1.5,2.7,3.3,3.8c4.6,2.7,12.2,2.7,16.9,0c1.8-1.1,2.9-2.4,3.3-3.8C69.3,136.9,68.2,135.5,66.4,134.5z M500,204.1v17.5 c0,0,0,0,0,0c0,1.9-1,3.9-3,5L341,316.6c-3.2,1.8-6.7,2.8-10.2,2.9v-26.9c-8.5,0.9-15.1-1.2-24-4.7c-8.1-3.2-3.5-8.1-0.6-13.2 c0,0,0,0,0,0c-0.4,0.3-1,0.3-1.5,0.4c-2.4,0.2-4.7,0.4-7.1,0.7c-3.2,0.3-6.4,0.6-9.6,0.3c-3.3-0.4-5.9-1.7-7.3-4.8 c-1.4-3.2-3.1-9.9,1.1-11.9c2.7-1.2,6.2-0.4,8.9,0.1c2.3,0.3,4.5,0.8,6.8,1.3c-7.2-2.3-19-4.3-37.5-5.6c-17.5-1.3,7.5-24.1,7.5-24.1 l114-64.9c0,0,19-15.9,42.6-6.7c22.8,8.9,57.9,33.3,61.6,45.2L500,204.1z M301,263.3c-4.6-2.7-12.2-2.7-16.9,0 c-2.8,1.6-3.9,3.9-3.3,6c0.4-1.4,1.5-2.7,3.3-3.8c4.6-2.7,12.2-2.7,16.9,0c1.8,1.1,2.9,2.4,3.3,3.8 C304.9,267.2,303.8,264.9,301,263.3z M277.4,279.9c-0.8-0.5-1.9,0.1-1.9,1.1v3.7c0,0.7,0.3,1.4,0.8,1.9c0.1,0.1,5.1,1.5,6.7,0.5 c1.5-0.9-0.3-4.1-0.3-4.1L277.4,279.9z" fill="#ffc79d"/></g><g id="change3_1"><path d="M262.4,67.9l-83-47.9c-5.2-3-11.7-3-16.9,0l-160,92.4c-3.2,1.9-3.2,6.5,0,8.3l82.4,47.6 c6.6,3.8,14.8,3.8,21.5,0l156.1-90.1C266.3,75.9,266.3,70.2,262.4,67.9z M205.8,40.4c1.3-0.7,2.8-0.7,4.1,0l9.7,5.6 c0.9,0.5,0.9,1.9,0,2.4l0,0c-1.5,0.9-3.4,0.9-4.9,0l-8.7-5C204.7,42.7,204.7,41.1,205.8,40.4z M66.4,142c-4.6,2.7-12.2,2.7-16.9,0 c-4.6-2.7-4.6-7.1,0-9.7c4.6-2.7,12.2-2.7,16.9,0C71,135,71,139.3,66.4,142z M247.2,74.9L110.3,154l-79.6-46l134.7-77.8 c4.5-2.6,10.1-2.6,14.6,0l67.2,38.8C249.5,70.4,249.5,73.6,247.2,74.9z M41.7,155.6l6.4-3.7l4.3,2.5c0.9,0.5,1.4,1.4,1.4,2.4v3.6 c0,1-1.1,1.6-1.9,1.1l-9.6-5.5C42.1,155.9,41.9,155.8,41.7,155.6z M276.4,286.7l6.4-3.7l4.3,2.5c0.9,0.5,1.4,1.4,1.4,2.4v3.6 c0,1-1.1,1.6-1.9,1.1l-9.6-5.5C276.7,286.9,276.5,286.8,276.4,286.7z M497,198.9L414,151c-5.2-3-11.7-3-16.9,0l-160,92.4 c-3.2,1.9-3.2,6.5,0,8.3l82.4,47.6c6.6,3.8,14.8,3.8,21.5,0L497,209.2C501,206.9,501,201.2,497,198.9z M440.5,171.4 c1.3-0.7,2.8-0.7,4.1,0l9.7,5.6c0.9,0.5,0.9,1.9,0,2.4l0,0c-1.5,0.9-3.4,0.9-4.9,0l-8.7-5C439.4,173.7,439.4,172.1,440.5,171.4z M301,273c-4.6,2.7-12.2,2.7-16.9,0c-4.6-2.7-4.6-7.1,0-9.7c4.6-2.7,12.2-2.7,16.9,0C305.7,266,305.7,270.4,301,273z M481.9,206 L344.9,285l-79.6-46l134.7-77.8c4.5-2.6,10.1-2.6,14.6,0l67.2,38.8C484.1,201.4,484.1,204.6,481.9,206z" fill="#f7f5fa"/></g><g id="change4_1"><path d="M234.9,63.7L122,128.9L54.3,89.8L65,83.6l-10.7-6.2L65,71.3l-10.7-6.2L167.2,0l67.7,39.1l-10.7,6.2l10.7,6.2 l-10.7,6.2L234.9,63.7z M401.8,156L319,203.8v-17.5l-29.7-21.6L190.5,136v18.2l45.4,26.4v14.9l82,8.9l-29,16.8l67.7,39.1l112.9-65.2 L401.8,156z" fill="#4d9e4d"/></g><g id="change5_1"><path d="M204.7,50.1c-8.1-6.5-8.2-15.4-0.1-21.9l-20.8-12c-10.2,3.5-23.1,3.4-33.2-0.1L82.2,55.5 c6.1,5.9,6.1,13.4,0,19.3l23.1,13.3c10.2-3.5,23.2-3.5,33.4,0L204.7,50.1z M123.9,36c9.7-5.6,28.1-4.1,41.1,3.4 c12.9,7.4,15.5,18.1,5.9,23.7c-9.7,5.6-28.1,4.1-41.1-3.4C116.8,52.2,114.2,41.5,123.9,36z M155.1,61.4c-0.4,0-0.7-0.1-1-0.3 c-0.3-0.2-0.4-0.4-0.5-0.6c0-0.2,0.2-0.4,0.6-0.7l3.5-2l-4.9-3.2l-5.3,3c-0.3,0.2-0.6,0.2-0.8,0.2c-0.3,0-0.5-0.1-0.7-0.2 c-0.2-0.1-0.3-0.3-0.3-0.4c0-0.2,0.1-0.3,0.4-0.5l5.3-3l-3.7-2.4l-5.3,3c-0.3,0.2-0.6,0.2-0.8,0.2c-0.2,0-0.5-0.1-0.7-0.2 c-0.2-0.1-0.3-0.3-0.3-0.4c0-0.2,0.1-0.3,0.4-0.5l4.8-2.7l-18.6-4l-0.9,0.5c-0.4,0.2-0.8,0.3-1.1,0.3c-0.3,0-0.7-0.1-1-0.3 c-0.3-0.2-0.4-0.4-0.5-0.6c0-0.2,0.2-0.4,0.6-0.7l4.4-2.6c0.4-0.2,0.8-0.3,1.1-0.3c0.3,0,0.7,0.1,1,0.3c0.3,0.2,0.4,0.4,0.5,0.6 c0,0.2-0.2,0.4-0.6,0.7l-1.6,0.9l17.1,3.7l-5-10.6l-1.6,0.9c-0.4,0.2-0.8,0.3-1.1,0.3c-0.3,0-0.7-0.1-1-0.3 c-0.3-0.2-0.4-0.4-0.5-0.6c0-0.2,0.2-0.4,0.6-0.7l4.5-2.6c0.4-0.2,0.8-0.3,1.1-0.3c0.3,0,0.7,0.1,1,0.3s0.4,0.4,0.5,0.6 c0,0.2-0.2,0.4-0.6,0.7l-1,0.6l5.4,11.6l4.7-2.7c0.3-0.2,0.5-0.2,0.8-0.2c0.3,0,0.5,0.1,0.7,0.2c0.2,0.1,0.3,0.3,0.3,0.4 c0,0.2-0.1,0.3-0.4,0.5l-5.3,3l3.7,2.4l5.3-3c0.3-0.2,0.5-0.2,0.8-0.2c0.2,0,0.5,0.1,0.7,0.2c0.2,0.1,0.3,0.3,0.3,0.4 c0,0.2-0.1,0.3-0.4,0.5l-5.3,3l4.9,3.2l3.5-2c0.4-0.2,0.8-0.3,1.1-0.3c0.3,0,0.7,0.1,1,0.3c0.3,0.2,0.4,0.4,0.4,0.6 c0,0.2-0.2,0.4-0.6,0.7l-8.6,5C155.8,61.4,155.5,61.5,155.1,61.4z M235.9,177.3l12.9-7.4L190.5,136l40.3-23.3l58.5,33.8l12.5-7.2 l17.2,47L235.9,177.3z M400.1,211.5c0,0.2-0.2,0.4-0.6,0.7l-8.6,5c-0.4,0.2-0.8,0.3-1.1,0.3c-0.4,0-0.7-0.1-1-0.3 c-0.3-0.2-0.4-0.4-0.5-0.6c0-0.2,0.2-0.4,0.6-0.7l3.5-2l-4.9-3.2l-5.3,3c-0.3,0.2-0.6,0.2-0.8,0.2c-0.3,0-0.5-0.1-0.7-0.2 c-0.2-0.1-0.3-0.3-0.3-0.4c0-0.2,0.1-0.3,0.4-0.5l5.3-3l-3.7-2.4l-5.3,3c-0.3,0.2-0.6,0.2-0.8,0.2c-0.2,0-0.5-0.1-0.7-0.2 c-0.2-0.1-0.3-0.3-0.3-0.4c0-0.2,0.1-0.3,0.4-0.5l4.8-2.7l-18.6-4l-0.9,0.5c-0.4,0.2-0.8,0.3-1.1,0.3c-0.3,0-0.7-0.1-1-0.3 c-0.3-0.2-0.4-0.4-0.5-0.6c0-0.2,0.2-0.4,0.6-0.7l4.4-2.6c0.4-0.2,0.8-0.3,1.1-0.3c0.3,0,0.7,0.1,1,0.3c0.3,0.2,0.4,0.4,0.5,0.6 c0,0.2-0.2,0.4-0.6,0.7l-1.6,0.9l17.1,3.7l-5-10.6l-1.6,0.9c-0.4,0.2-0.8,0.3-1.1,0.3c-0.3,0-0.7-0.1-1-0.3 c-0.3-0.2-0.4-0.4-0.5-0.6c0-0.2,0.2-0.4,0.6-0.7l4.5-2.6c0.4-0.2,0.8-0.3,1.1-0.3c0.3,0,0.7,0.1,1,0.3c0.3,0.2,0.4,0.4,0.5,0.6 c0,0.2-0.2,0.4-0.6,0.7l-1,0.6l5.4,11.6l4.7-2.7c0.3-0.2,0.5-0.2,0.8-0.2c0.3,0,0.5,0.1,0.7,0.2c0.2,0.1,0.3,0.3,0.3,0.4 c0,0.2-0.1,0.3-0.4,0.5l-5.3,3l3.7,2.4l5.3-3c0.3-0.2,0.5-0.2,0.8-0.2c0.2,0,0.5,0.1,0.7,0.2c0.2,0.1,0.3,0.3,0.3,0.4 c0,0.2-0.1,0.3-0.4,0.5l-5.3,3l4.9,3.2l3.5-2c0.4-0.2,0.8-0.3,1.1-0.3c0.3,0,0.7,0.1,1,0.3C399.9,211.1,400.1,211.3,400.1,211.5z M439.2,184.2l-20.8-12c-10.2,3.5-23.1,3.4-33.2-0.1l-68.3,39.4c6.1,5.9,6.1,13.4,0,19.3l23.1,13.3c10.2-3.5,23.2-3.5,33.4,0 l65.9-38.1C431.2,199.6,431.2,190.7,439.2,184.2z M405.5,219c-9.7,5.6-28.1,4.1-41.1-3.4c-12.9-7.4-15.5-18.1-5.9-23.7 c9.7-5.6,28.1-4.1,41.1,3.4C412.5,202.8,415.1,213.4,405.5,219z M105.3,100.5L82.2,87.1c1.3-1.3,2.4-2.7,3.1-4.1l27,15.6 C109.9,99.1,107.5,99.7,105.3,100.5z M201,58.6c0.9,1.3,2.2,2.6,3.6,3.8l-65.9,38.1c-2.2-0.8-4.6-1.4-7.1-1.8L201,58.6z M85.3,95.4 l27,15.6c-2.4,0.4-4.8,1-7,1.8L82.2,99.4C83.5,98.2,84.5,96.8,85.3,95.4z M204.7,74.7l-65.9,38.1c-2.2-0.8-4.6-1.4-7.1-1.8L201,71 C202,72.3,203.2,73.6,204.7,74.7z" fill="#5cad5c"/></g></svg>