<?xml version="1.0" encoding="UTF-8" standalone="no"?><svg xmlns="http://www.w3.org/2000/svg" xmlns:xlink="http://www.w3.org/1999/xlink" fill="#000000" height="39.2" preserveAspectRatio="xMidYMid meet" version="1" viewBox="-2.2 -0.3 41.1 39.2" width="41.1" zoomAndPan="magnify"><g data-name="Layer 2"><g data-name="Layer 1" fill="#142781" id="change1_1"><path d="M11.85,25.36a.48.48,0,0,0-.39.19L8.75,29,7.64,27.61a.49.49,0,0,0-.39-.19.51.51,0,0,0-.32.12.5.5,0,0,0-.07.7l1.51,1.84a.48.48,0,0,0,.39.19h0a.49.49,0,0,0,.35-.19l3.09-3.91a.49.49,0,0,0-.08-.7A.45.45,0,0,0,11.85,25.36Z" fill="inherit"/><path d="M15.9,22.71a8.72,8.72,0,0,1-5.58-2.85.51.51,0,0,0-.39-.19.48.48,0,0,0-.39.19A8.81,8.81,0,0,1,4,22.71a.5.5,0,0,0-.46.4c0,.1-1.69,9.59,6.28,12l.15,0,.14,0c8-2.44,6.3-11.93,6.28-12A.49.49,0,0,0,15.9,22.71Zm-11.47.95a9.63,9.63,0,0,0,5.5-2.75,9.56,9.56,0,0,0,5.49,2.75c.22,1.68.7,8.47-5.49,10.47C3.73,32.13,4.21,25.34,4.43,23.66Z" fill="inherit"/><path d="M19.88,0A17.81,17.81,0,0,0,2.1,17.79a19.06,19.06,0,0,0,.15,2.26,14.61,14.61,0,0,1-1.56.23.5.5,0,0,0-.45.41c0,.13-2.4,13.52,8.28,17.79a3.93,3.93,0,0,0,2.81,0,12.73,12.73,0,0,0,4.81-3.31,18.22,18.22,0,0,0,3.74.4A17.79,17.79,0,1,0,19.88,0Zm0,34.57a17,17,0,0,1-3-.27c4.18-5.57,2.8-13.28,2.74-13.61a.5.5,0,0,0-.45-.41,13.15,13.15,0,0,1-6.41-2.36A10,10,0,0,1,17,15a4.54,4.54,0,0,0,2.9,1,4.59,4.59,0,0,0,2.91-1,9.81,9.81,0,0,1,6.54,9.34h-4l-.83-3.66a.5.5,0,0,0-.49-.39H23.9a.5.5,0,0,0-.38.6l.78,3.44H22.59a.5.5,0,0,0-.5.5.5.5,0,0,0,.5.5h7.25a.5.5,0,0,0,.5-.5,11,11,0,0,0-6.79-10.62,4.62,4.62,0,0,0,1-2.82V9.9a4.67,4.67,0,0,0-.46-2l0,0A4.63,4.63,0,0,0,15.25,9.9v1.45a4.59,4.59,0,0,0,1,2.81,11.12,11.12,0,0,0-4.27,3.16c-.37-.3-.7-.58-.95-.82a1.53,1.53,0,0,0-2.13,0l-.37.34-.05,0A14,14,0,0,1,3.22,19.8,16.79,16.79,0,1,1,19.88,34.57ZM16,33.77l0,0a11.44,11.44,0,0,1-5,3.72,2.82,2.82,0,0,1-1,.2,2.74,2.74,0,0,1-1-.2c-9-3.57-8-14.18-7.73-16.3a14.56,14.56,0,0,0,7.91-3.59l0,0,.44-.4a.51.51,0,0,1,.37-.15.51.51,0,0,1,.36.15,15.21,15.21,0,0,0,1.42,1.19h0a14.31,14.31,0,0,0,7,2.82s0,.08,0,.13,0,.08,0,.13a1.23,1.23,0,0,1,0,.2c0,.05,0,.1,0,.15s0,.3,0,.46v.14c0,.36,0,.77.05,1.23v0C18.88,26.4,18.46,30.52,16,33.77ZM16.26,9.9V9.84a13.55,13.55,0,0,0,2.78.32,7.26,7.26,0,0,0,4.34-1.22,3.83,3.83,0,0,1,.13,1v1.45a3.63,3.63,0,1,1-7.25,0Zm3.62-3.63A3.63,3.63,0,0,1,23,8a5.94,5.94,0,0,1-3.9,1.15,12.33,12.33,0,0,1-2.64-.31A3.63,3.63,0,0,1,19.88,6.27Z" fill="inherit"/></g></g></svg>